<svg xmlns="http://www.w3.org/2000/svg" xmlns:xlink="http://www.w3.org/1999/xlink" width="512" height="512" viewBox="0 0 512 512">
  <defs>
    <clipPath id="clip-foreground">
      <rect width="512" height="512"/>
    </clipPath>
  </defs>
  <g id="foreground" clip-path="url(#clip-foreground)">
    <rect width="512" height="512" fill="rgba(160,49,49,0)"/>
    <path id="body_system_FILL0_wght400_GRAD0_opsz24" d="M188.227-597.332,223.08-764.258l-33.018,12.841v44.024H153.374v-67.871l92.635-38.98a45.172,45.172,0,0,1,13.528-3.439,30.89,30.89,0,0,1,13.528,1.6,48.846,48.846,0,0,1,12.153,6.42,32.932,32.932,0,0,1,9.4,10.547l18.344,29.35a92.322,92.322,0,0,0,33.706,32.331,90.875,90.875,0,0,0,45.171,11.694v36.687q-32.1,0-57.553-12.84a143.676,143.676,0,0,1-43.337-33.018l-11.006,27.515,38.521,36.687v73.374H281.779v-55.948L246.009-686.3l-19.261,88.966ZM290.951-826.626A35.327,35.327,0,0,1,265.04-837.4a35.327,35.327,0,0,1-10.777-25.91,35.327,35.327,0,0,1,10.777-25.91A35.327,35.327,0,0,1,290.951-900a35.327,35.327,0,0,1,25.91,10.777,35.327,35.327,0,0,1,10.777,25.91,35.327,35.327,0,0,1-10.777,25.91A35.327,35.327,0,0,1,290.951-826.626ZM263.435-523.957A178.621,178.621,0,0,1,191.9-538.4a185.243,185.243,0,0,1-58.241-39.209,185.244,185.244,0,0,1-39.209-58.241A178.621,178.621,0,0,1,80-707.393q0-54.572,28.2-98.138t73.6-66.037l16.509,32.56q-36.228,17.885-58.929,52.967t-22.7,78.648q0,61.451,42.649,104.1t104.1,42.649q61.451,0,104.1-42.649t42.649-104.1h36.687a178.621,178.621,0,0,1-14.446,71.54,185.244,185.244,0,0,1-39.209,58.241A185.243,185.243,0,0,1,334.975-538.4,178.621,178.621,0,0,1,263.435-523.957Z" transform="translate(-7.435 967.979)" fill="#f7f1f1"/>
  </g>
</svg>
